%TF.GenerationSoftware,KiCad,Pcbnew,(5.1.9)-1*%
%TF.CreationDate,2023-08-30T23:21:40+03:00*%
%TF.ProjectId,uSoundGenerator,75536f75-6e64-4476-956e-657261746f72,rev?*%
%TF.SameCoordinates,Original*%
%TF.FileFunction,Soldermask,Top*%
%TF.FilePolarity,Negative*%
%FSLAX46Y46*%
G04 Gerber Fmt 4.6, Leading zero omitted, Abs format (unit mm)*
G04 Created by KiCad (PCBNEW (5.1.9)-1) date 2023-08-30 23:21:40*
%MOMM*%
%LPD*%
G01*
G04 APERTURE LIST*
%ADD10O,1.800000X1.800000*%
%ADD11R,1.800000X1.800000*%
%ADD12R,0.800000X0.900000*%
%ADD13O,1.700000X1.700000*%
%ADD14R,1.700000X1.700000*%
G04 APERTURE END LIST*
%TO.C,U1*%
G36*
G01*
X127800000Y-83025000D02*
X127500000Y-83025000D01*
G75*
G02*
X127350000Y-82875000I0J150000D01*
G01*
X127350000Y-81225000D01*
G75*
G02*
X127500000Y-81075000I150000J0D01*
G01*
X127800000Y-81075000D01*
G75*
G02*
X127950000Y-81225000I0J-150000D01*
G01*
X127950000Y-82875000D01*
G75*
G02*
X127800000Y-83025000I-150000J0D01*
G01*
G37*
G36*
G01*
X129070000Y-83025000D02*
X128770000Y-83025000D01*
G75*
G02*
X128620000Y-82875000I0J150000D01*
G01*
X128620000Y-81225000D01*
G75*
G02*
X128770000Y-81075000I150000J0D01*
G01*
X129070000Y-81075000D01*
G75*
G02*
X129220000Y-81225000I0J-150000D01*
G01*
X129220000Y-82875000D01*
G75*
G02*
X129070000Y-83025000I-150000J0D01*
G01*
G37*
G36*
G01*
X130340000Y-83025000D02*
X130040000Y-83025000D01*
G75*
G02*
X129890000Y-82875000I0J150000D01*
G01*
X129890000Y-81225000D01*
G75*
G02*
X130040000Y-81075000I150000J0D01*
G01*
X130340000Y-81075000D01*
G75*
G02*
X130490000Y-81225000I0J-150000D01*
G01*
X130490000Y-82875000D01*
G75*
G02*
X130340000Y-83025000I-150000J0D01*
G01*
G37*
G36*
G01*
X131610000Y-83025000D02*
X131310000Y-83025000D01*
G75*
G02*
X131160000Y-82875000I0J150000D01*
G01*
X131160000Y-81225000D01*
G75*
G02*
X131310000Y-81075000I150000J0D01*
G01*
X131610000Y-81075000D01*
G75*
G02*
X131760000Y-81225000I0J-150000D01*
G01*
X131760000Y-82875000D01*
G75*
G02*
X131610000Y-83025000I-150000J0D01*
G01*
G37*
G36*
G01*
X132880000Y-83025000D02*
X132580000Y-83025000D01*
G75*
G02*
X132430000Y-82875000I0J150000D01*
G01*
X132430000Y-81225000D01*
G75*
G02*
X132580000Y-81075000I150000J0D01*
G01*
X132880000Y-81075000D01*
G75*
G02*
X133030000Y-81225000I0J-150000D01*
G01*
X133030000Y-82875000D01*
G75*
G02*
X132880000Y-83025000I-150000J0D01*
G01*
G37*
G36*
G01*
X134150000Y-83025000D02*
X133850000Y-83025000D01*
G75*
G02*
X133700000Y-82875000I0J150000D01*
G01*
X133700000Y-81225000D01*
G75*
G02*
X133850000Y-81075000I150000J0D01*
G01*
X134150000Y-81075000D01*
G75*
G02*
X134300000Y-81225000I0J-150000D01*
G01*
X134300000Y-82875000D01*
G75*
G02*
X134150000Y-83025000I-150000J0D01*
G01*
G37*
G36*
G01*
X135420000Y-83025000D02*
X135120000Y-83025000D01*
G75*
G02*
X134970000Y-82875000I0J150000D01*
G01*
X134970000Y-81225000D01*
G75*
G02*
X135120000Y-81075000I150000J0D01*
G01*
X135420000Y-81075000D01*
G75*
G02*
X135570000Y-81225000I0J-150000D01*
G01*
X135570000Y-82875000D01*
G75*
G02*
X135420000Y-83025000I-150000J0D01*
G01*
G37*
G36*
G01*
X135420000Y-87975000D02*
X135120000Y-87975000D01*
G75*
G02*
X134970000Y-87825000I0J150000D01*
G01*
X134970000Y-86175000D01*
G75*
G02*
X135120000Y-86025000I150000J0D01*
G01*
X135420000Y-86025000D01*
G75*
G02*
X135570000Y-86175000I0J-150000D01*
G01*
X135570000Y-87825000D01*
G75*
G02*
X135420000Y-87975000I-150000J0D01*
G01*
G37*
G36*
G01*
X134150000Y-87975000D02*
X133850000Y-87975000D01*
G75*
G02*
X133700000Y-87825000I0J150000D01*
G01*
X133700000Y-86175000D01*
G75*
G02*
X133850000Y-86025000I150000J0D01*
G01*
X134150000Y-86025000D01*
G75*
G02*
X134300000Y-86175000I0J-150000D01*
G01*
X134300000Y-87825000D01*
G75*
G02*
X134150000Y-87975000I-150000J0D01*
G01*
G37*
G36*
G01*
X132880000Y-87975000D02*
X132580000Y-87975000D01*
G75*
G02*
X132430000Y-87825000I0J150000D01*
G01*
X132430000Y-86175000D01*
G75*
G02*
X132580000Y-86025000I150000J0D01*
G01*
X132880000Y-86025000D01*
G75*
G02*
X133030000Y-86175000I0J-150000D01*
G01*
X133030000Y-87825000D01*
G75*
G02*
X132880000Y-87975000I-150000J0D01*
G01*
G37*
G36*
G01*
X131610000Y-87975000D02*
X131310000Y-87975000D01*
G75*
G02*
X131160000Y-87825000I0J150000D01*
G01*
X131160000Y-86175000D01*
G75*
G02*
X131310000Y-86025000I150000J0D01*
G01*
X131610000Y-86025000D01*
G75*
G02*
X131760000Y-86175000I0J-150000D01*
G01*
X131760000Y-87825000D01*
G75*
G02*
X131610000Y-87975000I-150000J0D01*
G01*
G37*
G36*
G01*
X130340000Y-87975000D02*
X130040000Y-87975000D01*
G75*
G02*
X129890000Y-87825000I0J150000D01*
G01*
X129890000Y-86175000D01*
G75*
G02*
X130040000Y-86025000I150000J0D01*
G01*
X130340000Y-86025000D01*
G75*
G02*
X130490000Y-86175000I0J-150000D01*
G01*
X130490000Y-87825000D01*
G75*
G02*
X130340000Y-87975000I-150000J0D01*
G01*
G37*
G36*
G01*
X129070000Y-87975000D02*
X128770000Y-87975000D01*
G75*
G02*
X128620000Y-87825000I0J150000D01*
G01*
X128620000Y-86175000D01*
G75*
G02*
X128770000Y-86025000I150000J0D01*
G01*
X129070000Y-86025000D01*
G75*
G02*
X129220000Y-86175000I0J-150000D01*
G01*
X129220000Y-87825000D01*
G75*
G02*
X129070000Y-87975000I-150000J0D01*
G01*
G37*
G36*
G01*
X127800000Y-87975000D02*
X127500000Y-87975000D01*
G75*
G02*
X127350000Y-87825000I0J150000D01*
G01*
X127350000Y-86175000D01*
G75*
G02*
X127500000Y-86025000I150000J0D01*
G01*
X127800000Y-86025000D01*
G75*
G02*
X127950000Y-86175000I0J-150000D01*
G01*
X127950000Y-87825000D01*
G75*
G02*
X127800000Y-87975000I-150000J0D01*
G01*
G37*
%TD*%
%TO.C,R4*%
G36*
G01*
X125437500Y-65625001D02*
X125437500Y-64374999D01*
G75*
G02*
X125687499Y-64125000I249999J0D01*
G01*
X126312501Y-64125000D01*
G75*
G02*
X126562500Y-64374999I0J-249999D01*
G01*
X126562500Y-65625001D01*
G75*
G02*
X126312501Y-65875000I-249999J0D01*
G01*
X125687499Y-65875000D01*
G75*
G02*
X125437500Y-65625001I0J249999D01*
G01*
G37*
G36*
G01*
X122512500Y-65625001D02*
X122512500Y-64374999D01*
G75*
G02*
X122762499Y-64125000I249999J0D01*
G01*
X123387501Y-64125000D01*
G75*
G02*
X123637500Y-64374999I0J-249999D01*
G01*
X123637500Y-65625001D01*
G75*
G02*
X123387501Y-65875000I-249999J0D01*
G01*
X122762499Y-65875000D01*
G75*
G02*
X122512500Y-65625001I0J249999D01*
G01*
G37*
%TD*%
%TO.C,R3*%
G36*
G01*
X133900000Y-95625001D02*
X133900000Y-94374999D01*
G75*
G02*
X134149999Y-94125000I249999J0D01*
G01*
X134775001Y-94125000D01*
G75*
G02*
X135025000Y-94374999I0J-249999D01*
G01*
X135025000Y-95625001D01*
G75*
G02*
X134775001Y-95875000I-249999J0D01*
G01*
X134149999Y-95875000D01*
G75*
G02*
X133900000Y-95625001I0J249999D01*
G01*
G37*
G36*
G01*
X130975000Y-95625001D02*
X130975000Y-94374999D01*
G75*
G02*
X131224999Y-94125000I249999J0D01*
G01*
X131850001Y-94125000D01*
G75*
G02*
X132100000Y-94374999I0J-249999D01*
G01*
X132100000Y-95625001D01*
G75*
G02*
X131850001Y-95875000I-249999J0D01*
G01*
X131224999Y-95875000D01*
G75*
G02*
X130975000Y-95625001I0J249999D01*
G01*
G37*
%TD*%
%TO.C,R2*%
G36*
G01*
X122362500Y-81625001D02*
X122362500Y-80374999D01*
G75*
G02*
X122612499Y-80125000I249999J0D01*
G01*
X123237501Y-80125000D01*
G75*
G02*
X123487500Y-80374999I0J-249999D01*
G01*
X123487500Y-81625001D01*
G75*
G02*
X123237501Y-81875000I-249999J0D01*
G01*
X122612499Y-81875000D01*
G75*
G02*
X122362500Y-81625001I0J249999D01*
G01*
G37*
G36*
G01*
X119437500Y-81625001D02*
X119437500Y-80374999D01*
G75*
G02*
X119687499Y-80125000I249999J0D01*
G01*
X120312501Y-80125000D01*
G75*
G02*
X120562500Y-80374999I0J-249999D01*
G01*
X120562500Y-81625001D01*
G75*
G02*
X120312501Y-81875000I-249999J0D01*
G01*
X119687499Y-81875000D01*
G75*
G02*
X119437500Y-81625001I0J249999D01*
G01*
G37*
%TD*%
%TO.C,R1*%
G36*
G01*
X126900000Y-91625001D02*
X126900000Y-90374999D01*
G75*
G02*
X127149999Y-90125000I249999J0D01*
G01*
X127775001Y-90125000D01*
G75*
G02*
X128025000Y-90374999I0J-249999D01*
G01*
X128025000Y-91625001D01*
G75*
G02*
X127775001Y-91875000I-249999J0D01*
G01*
X127149999Y-91875000D01*
G75*
G02*
X126900000Y-91625001I0J249999D01*
G01*
G37*
G36*
G01*
X123975000Y-91625001D02*
X123975000Y-90374999D01*
G75*
G02*
X124224999Y-90125000I249999J0D01*
G01*
X124850001Y-90125000D01*
G75*
G02*
X125100000Y-90374999I0J-249999D01*
G01*
X125100000Y-91625001D01*
G75*
G02*
X124850001Y-91875000I-249999J0D01*
G01*
X124224999Y-91875000D01*
G75*
G02*
X123975000Y-91625001I0J249999D01*
G01*
G37*
%TD*%
D10*
%TO.C,Q3*%
X144000000Y-86080000D03*
X144000000Y-83540000D03*
D11*
X144000000Y-81000000D03*
%TD*%
D12*
%TO.C,Q2*%
X144000000Y-93000000D03*
X144950000Y-95000000D03*
X143050000Y-95000000D03*
%TD*%
%TO.C,Q1*%
X139000000Y-93000000D03*
X139950000Y-95000000D03*
X138050000Y-95000000D03*
%TD*%
D13*
%TO.C,J3*%
X144000000Y-66920000D03*
X144000000Y-69460000D03*
X144000000Y-72000000D03*
D14*
X144000000Y-74540000D03*
%TD*%
D13*
%TO.C,J2*%
X120000000Y-85920000D03*
X120000000Y-88460000D03*
D14*
X120000000Y-91000000D03*
%TD*%
D13*
%TO.C,J1*%
X115000000Y-74620000D03*
X115000000Y-72080000D03*
X115000000Y-69540000D03*
D14*
X115000000Y-67000000D03*
%TD*%
%TO.C,C3*%
G36*
G01*
X132200000Y-73100000D02*
X133800000Y-73100000D01*
G75*
G02*
X134050000Y-73350000I0J-250000D01*
G01*
X134050000Y-77450000D01*
G75*
G02*
X133800000Y-77700000I-250000J0D01*
G01*
X132200000Y-77700000D01*
G75*
G02*
X131950000Y-77450000I0J250000D01*
G01*
X131950000Y-73350000D01*
G75*
G02*
X132200000Y-73100000I250000J0D01*
G01*
G37*
G36*
G01*
X132200000Y-64300000D02*
X133800000Y-64300000D01*
G75*
G02*
X134050000Y-64550000I0J-250000D01*
G01*
X134050000Y-68650000D01*
G75*
G02*
X133800000Y-68900000I-250000J0D01*
G01*
X132200000Y-68900000D01*
G75*
G02*
X131950000Y-68650000I0J250000D01*
G01*
X131950000Y-64550000D01*
G75*
G02*
X132200000Y-64300000I250000J0D01*
G01*
G37*
%TD*%
%TO.C,C2*%
G36*
G01*
X119349999Y-67900000D02*
X120650001Y-67900000D01*
G75*
G02*
X120900000Y-68149999I0J-249999D01*
G01*
X120900000Y-68800001D01*
G75*
G02*
X120650001Y-69050000I-249999J0D01*
G01*
X119349999Y-69050000D01*
G75*
G02*
X119100000Y-68800001I0J249999D01*
G01*
X119100000Y-68149999D01*
G75*
G02*
X119349999Y-67900000I249999J0D01*
G01*
G37*
G36*
G01*
X119349999Y-64950000D02*
X120650001Y-64950000D01*
G75*
G02*
X120900000Y-65199999I0J-249999D01*
G01*
X120900000Y-65850001D01*
G75*
G02*
X120650001Y-66100000I-249999J0D01*
G01*
X119349999Y-66100000D01*
G75*
G02*
X119100000Y-65850001I0J249999D01*
G01*
X119100000Y-65199999D01*
G75*
G02*
X119349999Y-64950000I249999J0D01*
G01*
G37*
%TD*%
%TO.C,C1*%
G36*
G01*
X126900000Y-95650001D02*
X126900000Y-94349999D01*
G75*
G02*
X127149999Y-94100000I249999J0D01*
G01*
X127800001Y-94100000D01*
G75*
G02*
X128050000Y-94349999I0J-249999D01*
G01*
X128050000Y-95650001D01*
G75*
G02*
X127800001Y-95900000I-249999J0D01*
G01*
X127149999Y-95900000D01*
G75*
G02*
X126900000Y-95650001I0J249999D01*
G01*
G37*
G36*
G01*
X123950000Y-95650001D02*
X123950000Y-94349999D01*
G75*
G02*
X124199999Y-94100000I249999J0D01*
G01*
X124850001Y-94100000D01*
G75*
G02*
X125100000Y-94349999I0J-249999D01*
G01*
X125100000Y-95650001D01*
G75*
G02*
X124850001Y-95900000I-249999J0D01*
G01*
X124199999Y-95900000D01*
G75*
G02*
X123950000Y-95650001I0J249999D01*
G01*
G37*
%TD*%
M02*
