%TF.GenerationSoftware,KiCad,Pcbnew,(5.1.9)-1*%
%TF.CreationDate,2023-08-30T23:21:40+03:00*%
%TF.ProjectId,uSoundGenerator,75536f75-6e64-4476-956e-657261746f72,rev?*%
%TF.SameCoordinates,Original*%
%TF.FileFunction,Legend,Top*%
%TF.FilePolarity,Positive*%
%FSLAX46Y46*%
G04 Gerber Fmt 4.6, Leading zero omitted, Abs format (unit mm)*
G04 Created by KiCad (PCBNEW (5.1.9)-1) date 2023-08-30 23:21:40*
%MOMM*%
%LPD*%
G01*
G04 APERTURE LIST*
%ADD10C,0.120000*%
%ADD11C,0.150000*%
G04 APERTURE END LIST*
D10*
%TO.C,U1*%
X135895000Y-84525000D02*
X135895000Y-82575000D01*
X135895000Y-84525000D02*
X135895000Y-86475000D01*
X127025000Y-84525000D02*
X127025000Y-82575000D01*
X127025000Y-84525000D02*
X127025000Y-87975000D01*
%TO.C,R4*%
X123810436Y-64090000D02*
X125264564Y-64090000D01*
X123810436Y-65910000D02*
X125264564Y-65910000D01*
%TO.C,R3*%
X132272936Y-94090000D02*
X133727064Y-94090000D01*
X132272936Y-95910000D02*
X133727064Y-95910000D01*
%TO.C,R2*%
X120735436Y-80090000D02*
X122189564Y-80090000D01*
X120735436Y-81910000D02*
X122189564Y-81910000D01*
%TO.C,R1*%
X125272936Y-90090000D02*
X126727064Y-90090000D01*
X125272936Y-91910000D02*
X126727064Y-91910000D01*
%TO.C,Q3*%
X146120000Y-79420000D02*
X146120000Y-87660000D01*
X142630000Y-79420000D02*
X142630000Y-87660000D01*
X146120000Y-79420000D02*
X142630000Y-79420000D01*
X146120000Y-87660000D02*
X142630000Y-87660000D01*
X146120000Y-81940000D02*
X145050000Y-81940000D01*
X142950000Y-81940000D02*
X142630000Y-81940000D01*
X146120000Y-85141000D02*
X144540000Y-85141000D01*
X143460000Y-85141000D02*
X142630000Y-85141000D01*
%TO.C,Q2*%
X145580000Y-93240000D02*
X144650000Y-93240000D01*
X142420000Y-93240000D02*
X143350000Y-93240000D01*
X142420000Y-93240000D02*
X142420000Y-95400000D01*
X145580000Y-93240000D02*
X145580000Y-94700000D01*
%TO.C,Q1*%
X140580000Y-93240000D02*
X139650000Y-93240000D01*
X137420000Y-93240000D02*
X138350000Y-93240000D01*
X137420000Y-93240000D02*
X137420000Y-95400000D01*
X140580000Y-93240000D02*
X140580000Y-94700000D01*
%TO.C,J3*%
X145330000Y-65590000D02*
X142670000Y-65590000D01*
X145330000Y-73270000D02*
X145330000Y-65590000D01*
X142670000Y-73270000D02*
X142670000Y-65590000D01*
X145330000Y-73270000D02*
X142670000Y-73270000D01*
X145330000Y-74540000D02*
X145330000Y-75870000D01*
X145330000Y-75870000D02*
X144000000Y-75870000D01*
%TO.C,J2*%
X121330000Y-84590000D02*
X118670000Y-84590000D01*
X121330000Y-89730000D02*
X121330000Y-84590000D01*
X118670000Y-89730000D02*
X118670000Y-84590000D01*
X121330000Y-89730000D02*
X118670000Y-89730000D01*
X121330000Y-91000000D02*
X121330000Y-92330000D01*
X121330000Y-92330000D02*
X120000000Y-92330000D01*
%TO.C,J1*%
X113670000Y-75950000D02*
X116330000Y-75950000D01*
X113670000Y-68270000D02*
X113670000Y-75950000D01*
X116330000Y-68270000D02*
X116330000Y-75950000D01*
X113670000Y-68270000D02*
X116330000Y-68270000D01*
X113670000Y-67000000D02*
X113670000Y-65670000D01*
X113670000Y-65670000D02*
X115000000Y-65670000D01*
%TO.C,C3*%
X127740000Y-76260000D02*
X131690000Y-76260000D01*
X138260000Y-76260000D02*
X134310000Y-76260000D01*
X138260000Y-66804437D02*
X138260000Y-76260000D01*
X127740000Y-66804437D02*
X127740000Y-76260000D01*
X128804437Y-65740000D02*
X131690000Y-65740000D01*
X137195563Y-65740000D02*
X134310000Y-65740000D01*
X137195563Y-65740000D02*
X138260000Y-66804437D01*
X128804437Y-65740000D02*
X127740000Y-66804437D01*
%TO.C,C2*%
X120910000Y-66288748D02*
X120910000Y-67711252D01*
X119090000Y-66288748D02*
X119090000Y-67711252D01*
%TO.C,C1*%
X125288748Y-94090000D02*
X126711252Y-94090000D01*
X125288748Y-95910000D02*
X126711252Y-95910000D01*
%TO.C,U1*%
D11*
X125452380Y-86561904D02*
X126261904Y-86561904D01*
X126357142Y-86514285D01*
X126404761Y-86466666D01*
X126452380Y-86371428D01*
X126452380Y-86180952D01*
X126404761Y-86085714D01*
X126357142Y-86038095D01*
X126261904Y-85990476D01*
X125452380Y-85990476D01*
X126452380Y-84990476D02*
X126452380Y-85561904D01*
X126452380Y-85276190D02*
X125452380Y-85276190D01*
X125595238Y-85371428D01*
X125690476Y-85466666D01*
X125738095Y-85561904D01*
%TO.C,R4*%
X124370833Y-63632380D02*
X124037500Y-63156190D01*
X123799404Y-63632380D02*
X123799404Y-62632380D01*
X124180357Y-62632380D01*
X124275595Y-62680000D01*
X124323214Y-62727619D01*
X124370833Y-62822857D01*
X124370833Y-62965714D01*
X124323214Y-63060952D01*
X124275595Y-63108571D01*
X124180357Y-63156190D01*
X123799404Y-63156190D01*
X125227976Y-62965714D02*
X125227976Y-63632380D01*
X124989880Y-62584761D02*
X124751785Y-63299047D01*
X125370833Y-63299047D01*
%TO.C,R3*%
X132833333Y-93632380D02*
X132500000Y-93156190D01*
X132261904Y-93632380D02*
X132261904Y-92632380D01*
X132642857Y-92632380D01*
X132738095Y-92680000D01*
X132785714Y-92727619D01*
X132833333Y-92822857D01*
X132833333Y-92965714D01*
X132785714Y-93060952D01*
X132738095Y-93108571D01*
X132642857Y-93156190D01*
X132261904Y-93156190D01*
X133166666Y-92632380D02*
X133785714Y-92632380D01*
X133452380Y-93013333D01*
X133595238Y-93013333D01*
X133690476Y-93060952D01*
X133738095Y-93108571D01*
X133785714Y-93203809D01*
X133785714Y-93441904D01*
X133738095Y-93537142D01*
X133690476Y-93584761D01*
X133595238Y-93632380D01*
X133309523Y-93632380D01*
X133214285Y-93584761D01*
X133166666Y-93537142D01*
%TO.C,R2*%
X121295833Y-79632380D02*
X120962500Y-79156190D01*
X120724404Y-79632380D02*
X120724404Y-78632380D01*
X121105357Y-78632380D01*
X121200595Y-78680000D01*
X121248214Y-78727619D01*
X121295833Y-78822857D01*
X121295833Y-78965714D01*
X121248214Y-79060952D01*
X121200595Y-79108571D01*
X121105357Y-79156190D01*
X120724404Y-79156190D01*
X121676785Y-78727619D02*
X121724404Y-78680000D01*
X121819642Y-78632380D01*
X122057738Y-78632380D01*
X122152976Y-78680000D01*
X122200595Y-78727619D01*
X122248214Y-78822857D01*
X122248214Y-78918095D01*
X122200595Y-79060952D01*
X121629166Y-79632380D01*
X122248214Y-79632380D01*
%TO.C,R1*%
X125833333Y-89632380D02*
X125500000Y-89156190D01*
X125261904Y-89632380D02*
X125261904Y-88632380D01*
X125642857Y-88632380D01*
X125738095Y-88680000D01*
X125785714Y-88727619D01*
X125833333Y-88822857D01*
X125833333Y-88965714D01*
X125785714Y-89060952D01*
X125738095Y-89108571D01*
X125642857Y-89156190D01*
X125261904Y-89156190D01*
X126785714Y-89632380D02*
X126214285Y-89632380D01*
X126500000Y-89632380D02*
X126500000Y-88632380D01*
X126404761Y-88775238D01*
X126309523Y-88870476D01*
X126214285Y-88918095D01*
%TO.C,Q3*%
X147667619Y-82495238D02*
X147620000Y-82590476D01*
X147524761Y-82685714D01*
X147381904Y-82828571D01*
X147334285Y-82923809D01*
X147334285Y-83019047D01*
X147572380Y-82971428D02*
X147524761Y-83066666D01*
X147429523Y-83161904D01*
X147239047Y-83209523D01*
X146905714Y-83209523D01*
X146715238Y-83161904D01*
X146620000Y-83066666D01*
X146572380Y-82971428D01*
X146572380Y-82780952D01*
X146620000Y-82685714D01*
X146715238Y-82590476D01*
X146905714Y-82542857D01*
X147239047Y-82542857D01*
X147429523Y-82590476D01*
X147524761Y-82685714D01*
X147572380Y-82780952D01*
X147572380Y-82971428D01*
X146572380Y-82209523D02*
X146572380Y-81590476D01*
X146953333Y-81923809D01*
X146953333Y-81780952D01*
X147000952Y-81685714D01*
X147048571Y-81638095D01*
X147143809Y-81590476D01*
X147381904Y-81590476D01*
X147477142Y-81638095D01*
X147524761Y-81685714D01*
X147572380Y-81780952D01*
X147572380Y-82066666D01*
X147524761Y-82161904D01*
X147477142Y-82209523D01*
%TO.C,Q2*%
X145104761Y-91347619D02*
X145009523Y-91300000D01*
X144914285Y-91204761D01*
X144771428Y-91061904D01*
X144676190Y-91014285D01*
X144580952Y-91014285D01*
X144628571Y-91252380D02*
X144533333Y-91204761D01*
X144438095Y-91109523D01*
X144390476Y-90919047D01*
X144390476Y-90585714D01*
X144438095Y-90395238D01*
X144533333Y-90300000D01*
X144628571Y-90252380D01*
X144819047Y-90252380D01*
X144914285Y-90300000D01*
X145009523Y-90395238D01*
X145057142Y-90585714D01*
X145057142Y-90919047D01*
X145009523Y-91109523D01*
X144914285Y-91204761D01*
X144819047Y-91252380D01*
X144628571Y-91252380D01*
X145438095Y-90347619D02*
X145485714Y-90300000D01*
X145580952Y-90252380D01*
X145819047Y-90252380D01*
X145914285Y-90300000D01*
X145961904Y-90347619D01*
X146009523Y-90442857D01*
X146009523Y-90538095D01*
X145961904Y-90680952D01*
X145390476Y-91252380D01*
X146009523Y-91252380D01*
%TO.C,Q1*%
X140504761Y-91547619D02*
X140409523Y-91500000D01*
X140314285Y-91404761D01*
X140171428Y-91261904D01*
X140076190Y-91214285D01*
X139980952Y-91214285D01*
X140028571Y-91452380D02*
X139933333Y-91404761D01*
X139838095Y-91309523D01*
X139790476Y-91119047D01*
X139790476Y-90785714D01*
X139838095Y-90595238D01*
X139933333Y-90500000D01*
X140028571Y-90452380D01*
X140219047Y-90452380D01*
X140314285Y-90500000D01*
X140409523Y-90595238D01*
X140457142Y-90785714D01*
X140457142Y-91119047D01*
X140409523Y-91309523D01*
X140314285Y-91404761D01*
X140219047Y-91452380D01*
X140028571Y-91452380D01*
X141409523Y-91452380D02*
X140838095Y-91452380D01*
X141123809Y-91452380D02*
X141123809Y-90452380D01*
X141028571Y-90595238D01*
X140933333Y-90690476D01*
X140838095Y-90738095D01*
%TO.C,J3*%
X146666666Y-69452380D02*
X146666666Y-70166666D01*
X146619047Y-70309523D01*
X146523809Y-70404761D01*
X146380952Y-70452380D01*
X146285714Y-70452380D01*
X147047619Y-69452380D02*
X147666666Y-69452380D01*
X147333333Y-69833333D01*
X147476190Y-69833333D01*
X147571428Y-69880952D01*
X147619047Y-69928571D01*
X147666666Y-70023809D01*
X147666666Y-70261904D01*
X147619047Y-70357142D01*
X147571428Y-70404761D01*
X147476190Y-70452380D01*
X147190476Y-70452380D01*
X147095238Y-70404761D01*
X147047619Y-70357142D01*
%TO.C,J2*%
X116666666Y-88852380D02*
X116666666Y-89566666D01*
X116619047Y-89709523D01*
X116523809Y-89804761D01*
X116380952Y-89852380D01*
X116285714Y-89852380D01*
X117095238Y-88947619D02*
X117142857Y-88900000D01*
X117238095Y-88852380D01*
X117476190Y-88852380D01*
X117571428Y-88900000D01*
X117619047Y-88947619D01*
X117666666Y-89042857D01*
X117666666Y-89138095D01*
X117619047Y-89280952D01*
X117047619Y-89852380D01*
X117666666Y-89852380D01*
%TO.C,J1*%
X114666666Y-64122380D02*
X114666666Y-64836666D01*
X114619047Y-64979523D01*
X114523809Y-65074761D01*
X114380952Y-65122380D01*
X114285714Y-65122380D01*
X115666666Y-65122380D02*
X115095238Y-65122380D01*
X115380952Y-65122380D02*
X115380952Y-64122380D01*
X115285714Y-64265238D01*
X115190476Y-64360476D01*
X115095238Y-64408095D01*
%TO.C,C3*%
X139557142Y-71166666D02*
X139604761Y-71214285D01*
X139652380Y-71357142D01*
X139652380Y-71452380D01*
X139604761Y-71595238D01*
X139509523Y-71690476D01*
X139414285Y-71738095D01*
X139223809Y-71785714D01*
X139080952Y-71785714D01*
X138890476Y-71738095D01*
X138795238Y-71690476D01*
X138700000Y-71595238D01*
X138652380Y-71452380D01*
X138652380Y-71357142D01*
X138700000Y-71214285D01*
X138747619Y-71166666D01*
X138652380Y-70833333D02*
X138652380Y-70214285D01*
X139033333Y-70547619D01*
X139033333Y-70404761D01*
X139080952Y-70309523D01*
X139128571Y-70261904D01*
X139223809Y-70214285D01*
X139461904Y-70214285D01*
X139557142Y-70261904D01*
X139604761Y-70309523D01*
X139652380Y-70404761D01*
X139652380Y-70690476D01*
X139604761Y-70785714D01*
X139557142Y-70833333D01*
%TO.C,C2*%
X119833333Y-70757142D02*
X119785714Y-70804761D01*
X119642857Y-70852380D01*
X119547619Y-70852380D01*
X119404761Y-70804761D01*
X119309523Y-70709523D01*
X119261904Y-70614285D01*
X119214285Y-70423809D01*
X119214285Y-70280952D01*
X119261904Y-70090476D01*
X119309523Y-69995238D01*
X119404761Y-69900000D01*
X119547619Y-69852380D01*
X119642857Y-69852380D01*
X119785714Y-69900000D01*
X119833333Y-69947619D01*
X120214285Y-69947619D02*
X120261904Y-69900000D01*
X120357142Y-69852380D01*
X120595238Y-69852380D01*
X120690476Y-69900000D01*
X120738095Y-69947619D01*
X120785714Y-70042857D01*
X120785714Y-70138095D01*
X120738095Y-70280952D01*
X120166666Y-70852380D01*
X120785714Y-70852380D01*
%TO.C,C1*%
X128033333Y-97357142D02*
X127985714Y-97404761D01*
X127842857Y-97452380D01*
X127747619Y-97452380D01*
X127604761Y-97404761D01*
X127509523Y-97309523D01*
X127461904Y-97214285D01*
X127414285Y-97023809D01*
X127414285Y-96880952D01*
X127461904Y-96690476D01*
X127509523Y-96595238D01*
X127604761Y-96500000D01*
X127747619Y-96452380D01*
X127842857Y-96452380D01*
X127985714Y-96500000D01*
X128033333Y-96547619D01*
X128985714Y-97452380D02*
X128414285Y-97452380D01*
X128700000Y-97452380D02*
X128700000Y-96452380D01*
X128604761Y-96595238D01*
X128509523Y-96690476D01*
X128414285Y-96738095D01*
%TD*%
M02*
